<svg xmlns="http://www.w3.org/2000/svg" viewBox="0 0 690 690"><path d="M379.79,315.36a45.69,45.69,0,1,0,4.8,64.49A45.67,45.67,0,0,0,379.79,315.36Z" transform="translate(-5 -5)" fill-rule="evenodd"/><path d="M284,423.91a45.65,45.65,0,1,0,4.79,64.38A45.67,45.67,0,0,0,284,423.91Z" transform="translate(-5 -5)" fill-rule="evenodd"/><path d="M350,5C159.46,5,5,159.46,5,350S159.46,695,350,695,695,540.54,695,350,540.54,5,350,5ZM516.88,519.58,210.07,542.42a27.68,27.68,0,0,1-29.71-25.48L157.52,210a27.67,27.67,0,0,1,25.6-29.6l306.81-22.84a27.76,27.76,0,0,1,29.71,25.48L542.48,490A27.75,27.75,0,0,1,516.88,519.58Z" transform="translate(-5 -5)" fill-rule="evenodd"/><path d="M475.49,206.94a45.65,45.65,0,1,0,4.8,64.38A45.66,45.66,0,0,0,475.49,206.94Z" transform="translate(-5 -5)" fill-rule="evenodd"/></svg>